<svg xmlns="http://www.w3.org/2000/svg" width="1200" height="420" viewBox="0 0 1200 420" font-family="ui-monospace,Menlo,monospace">
  <rect width="1200" height="420" fill="#12100D"/>
  <rect x="20" y="20" width="1160" height="380" rx="10" fill="none" stroke="#3A3225" stroke-width="2"/>
  <circle cx="48" cy="50" r="6" fill="#e06e6e"/><circle cx="70" cy="50" r="6" fill="#e8b454"/><circle cx="92" cy="50" r="6" fill="#E8A33D"/>
  <text x="1150" y="56" text-anchor="end" font-size="15" fill="#8A8270">coldwa.st</text>
  <text x="48" y="120" font-size="34" font-weight="700" fill="#EDE6D8">Cabal sandboxes</text>
  <text x="48" y="158" font-size="20" fill="#E8A33D">isolate dependencies per project</text>
  <!-- three isolated sandboxes -->
  <g>
    <rect x="640" y="210" width="150" height="150" rx="8" fill="#1A1712" stroke="#B87A28" stroke-width="2.5"/>
    <rect x="810" y="210" width="150" height="150" rx="8" fill="#1A1712" stroke="#B87A28" stroke-width="2.5"/>
    <rect x="980" y="210" width="150" height="150" rx="8" fill="#1A1712" stroke="#B87A28" stroke-width="2.5"/>
    <text x="660" y="245" font-size="14" fill="#E8A33D">project-a</text>
    <text x="830" y="245" font-size="14" fill="#E8A33D">project-b</text>
    <text x="1000" y="245" font-size="14" fill="#E8A33D">project-c</text>
    <rect x="660" y="262" width="110" height="14" rx="3" fill="#2E2820"/><rect x="660" y="284" width="80" height="14" rx="3" fill="#2E2820"/><rect x="660" y="306" width="96" height="14" rx="3" fill="#2E2820"/>
    <rect x="830" y="262" width="90" height="14" rx="3" fill="#2E2820"/><rect x="830" y="284" width="110" height="14" rx="3" fill="#2E2820"/><rect x="830" y="306" width="70" height="14" rx="3" fill="#2E2820"/>
    <rect x="1000" y="262" width="100" height="14" rx="3" fill="#2E2820"/><rect x="1000" y="284" width="76" height="14" rx="3" fill="#2E2820"/><rect x="1000" y="306" width="104" height="14" rx="3" fill="#2E2820"/>
  </g>
  <text x="48" y="232" font-size="16" fill="#B8AE9C">$ cabal sandbox init</text>
  <text x="48" y="262" font-size="16" fill="#8A8270"># no global state,</text>
  <text x="48" y="288" font-size="16" fill="#8A8270"># no version clashes</text>
  <text x="48" y="350" font-size="15" fill="#B87A28">2013 → today: what replaced it (v2-build)</text>
</svg>
