<svg xmlns="http://www.w3.org/2000/svg" width="1200" height="420" viewBox="0 0 1200 420" font-family="ui-monospace,Menlo,monospace">
  <rect width="1200" height="420" fill="#0f1413"/>
  <rect x="20" y="20" width="1160" height="380" rx="10" fill="none" stroke="#35514a" stroke-width="2"/>
  <circle cx="48" cy="50" r="6" fill="#e06e6e"/><circle cx="70" cy="50" r="6" fill="#e8b454"/><circle cx="92" cy="50" r="6" fill="#5ee0a0"/>
  <text x="1150" y="56" text-anchor="end" font-size="15" fill="#6b7e76">coldwa.st</text>
  <text x="48" y="120" font-size="34" font-weight="700" fill="#e6efe9">Cabal 2.0</text>
  <text x="48" y="158" font-size="20" fill="#5ee0a0">nix-style builds &amp; Backpack</text>
  <!-- dependency graph -->
  <g stroke="#2f9c6a" stroke-width="2" fill="none">
    <line x1="720" y1="120" x2="640" y2="220"/><line x1="720" y1="120" x2="800" y2="220"/>
    <line x1="640" y1="220" x2="600" y2="320"/><line x1="640" y1="220" x2="720" y2="320"/>
    <line x1="800" y1="220" x2="720" y2="320"/><line x1="800" y1="220" x2="900" y2="320"/>
  </g>
  <g font-size="13">
    <circle cx="720" cy="120" r="26" fill="#161d1b" stroke="#5ee0a0" stroke-width="2.5"/><text x="720" y="125" text-anchor="middle" fill="#5ee0a0">app</text>
    <circle cx="640" cy="220" r="24" fill="#161d1b" stroke="#2f9c6a" stroke-width="2"/><text x="640" y="225" text-anchor="middle" fill="#9fb3aa">lib-a</text>
    <circle cx="800" cy="220" r="24" fill="#161d1b" stroke="#2f9c6a" stroke-width="2"/><text x="800" y="225" text-anchor="middle" fill="#9fb3aa">lib-b</text>
    <circle cx="600" cy="320" r="22" fill="#161d1b" stroke="#243330" stroke-width="2"/><text x="600" y="325" text-anchor="middle" fill="#6b7e76">dep</text>
    <circle cx="720" cy="320" r="22" fill="#161d1b" stroke="#243330" stroke-width="2"/><text x="720" y="325" text-anchor="middle" fill="#6b7e76">dep</text>
    <circle cx="900" cy="320" r="22" fill="#161d1b" stroke="#243330" stroke-width="2"/><text x="900" y="325" text-anchor="middle" fill="#6b7e76">dep</text>
  </g>
  <text x="48" y="232" font-size="16" fill="#9fb3aa">$ cabal new-build</text>
  <text x="48" y="262" font-size="16" fill="#6b7e76"># per-project plan,</text>
  <text x="48" y="288" font-size="16" fill="#6b7e76"># shared global store</text>
  <text x="48" y="350" font-size="15" fill="#2f9c6a">2017 → the release that reshaped Cabal</text>
</svg>
